<?xml version="1.0" standalone="no"?>
<svg xmlns:xlink="http://www.w3.org/1999/xlink" id="wave" style="transform:rotate(0deg); transition: 0.3s" viewBox="0 0 1440 490" version="1.1" xmlns="http://www.w3.org/2000/svg"><defs><linearGradient id="sw-gradient-0" x1="0" x2="0" y1="1" y2="0"><stop stop-color="rgba(255, 255, 255, 1)" offset="0%"/><stop stop-color="rgba(255, 255, 255, 1)" offset="100%"/></linearGradient></defs><path style="transform:translate(0, 0px); opacity:1" fill="url(#sw-gradient-0)" d="M0,147L26.7,147C53.3,147,107,147,160,187.8C213.3,229,267,310,320,302.2C373.3,294,427,196,480,204.2C533.3,212,587,327,640,334.8C693.3,343,747,245,800,228.7C853.3,212,907,278,960,326.7C1013.3,376,1067,408,1120,383.8C1173.3,359,1227,278,1280,253.2C1333.3,229,1387,261,1440,245C1493.3,229,1547,163,1600,187.8C1653.3,212,1707,327,1760,343C1813.3,359,1867,278,1920,220.5C1973.3,163,2027,131,2080,163.3C2133.3,196,2187,294,2240,343C2293.3,392,2347,392,2400,326.7C2453.3,261,2507,131,2560,130.7C2613.3,131,2667,261,2720,269.5C2773.3,278,2827,163,2880,130.7C2933.3,98,2987,147,3040,196C3093.3,245,3147,294,3200,285.8C3253.3,278,3307,212,3360,204.2C3413.3,196,3467,245,3520,269.5C3573.3,294,3627,294,3680,302.2C3733.3,310,3787,327,3813,334.8L3840,343L3840,490L3813.3,490C3786.7,490,3733,490,3680,490C3626.7,490,3573,490,3520,490C3466.7,490,3413,490,3360,490C3306.7,490,3253,490,3200,490C3146.7,490,3093,490,3040,490C2986.7,490,2933,490,2880,490C2826.7,490,2773,490,2720,490C2666.7,490,2613,490,2560,490C2506.7,490,2453,490,2400,490C2346.7,490,2293,490,2240,490C2186.7,490,2133,490,2080,490C2026.7,490,1973,490,1920,490C1866.7,490,1813,490,1760,490C1706.7,490,1653,490,1600,490C1546.7,490,1493,490,1440,490C1386.7,490,1333,490,1280,490C1226.7,490,1173,490,1120,490C1066.7,490,1013,490,960,490C906.7,490,853,490,800,490C746.7,490,693,490,640,490C586.7,490,533,490,480,490C426.7,490,373,490,320,490C266.7,490,213,490,160,490C106.7,490,53,490,27,490L0,490Z"/></svg>